<mxfile host="app.diagrams.net" agent="Mozilla/5.0 (Windows NT 10.0; Win64; x64; rv:132.0) Gecko/20100101 Firefox/132.0" version="24.8.6">
  <diagram name="Сторінка-1" id="0hdriCNylg0J70wgF8Mk">
    <mxGraphModel grid="1" page="1" gridSize="10" guides="1" tooltips="1" connect="1" arrows="1" fold="1" pageScale="1" pageWidth="827" pageHeight="1169" math="0" shadow="0">
      <root>
        <mxCell id="0" />
        <mxCell id="1" parent="0" />
        <mxCell id="BPXdv4qKAqIuUl87QLlF-4" value="" style="edgeStyle=orthogonalEdgeStyle;rounded=0;orthogonalLoop=1;jettySize=auto;html=1;entryX=0.5;entryY=0;entryDx=0;entryDy=0;" edge="1" parent="1" source="BPXdv4qKAqIuUl87QLlF-2" target="BPXdv4qKAqIuUl87QLlF-7">
          <mxGeometry relative="1" as="geometry" />
        </mxCell>
        <mxCell id="BPXdv4qKAqIuUl87QLlF-2" value="Start" style="ellipse;whiteSpace=wrap;html=1;" vertex="1" parent="1">
          <mxGeometry x="340" y="10" width="120" height="80" as="geometry" />
        </mxCell>
        <mxCell id="BPXdv4qKAqIuUl87QLlF-6" value="" style="edgeStyle=orthogonalEdgeStyle;rounded=0;orthogonalLoop=1;jettySize=auto;html=1;" edge="1" parent="1" source="BPXdv4qKAqIuUl87QLlF-3" target="BPXdv4qKAqIuUl87QLlF-5">
          <mxGeometry relative="1" as="geometry" />
        </mxCell>
        <mxCell id="BPXdv4qKAqIuUl87QLlF-10" style="edgeStyle=orthogonalEdgeStyle;rounded=0;orthogonalLoop=1;jettySize=auto;html=1;" edge="1" parent="1" source="BPXdv4qKAqIuUl87QLlF-3" target="BPXdv4qKAqIuUl87QLlF-11">
          <mxGeometry relative="1" as="geometry">
            <mxPoint x="440" y="480" as="targetPoint" />
            <Array as="points">
              <mxPoint x="521" y="250" />
            </Array>
          </mxGeometry>
        </mxCell>
        <mxCell id="BPXdv4qKAqIuUl87QLlF-3" value="int i=0; i&amp;lt;8; i++" style="shape=hexagon;perimeter=hexagonPerimeter2;whiteSpace=wrap;html=1;fixedSize=1;" vertex="1" parent="1">
          <mxGeometry x="340" y="210" width="120" height="80" as="geometry" />
        </mxCell>
        <mxCell id="BPXdv4qKAqIuUl87QLlF-9" style="edgeStyle=orthogonalEdgeStyle;rounded=0;orthogonalLoop=1;jettySize=auto;html=1;entryX=0;entryY=0.5;entryDx=0;entryDy=0;" edge="1" parent="1" source="BPXdv4qKAqIuUl87QLlF-5" target="BPXdv4qKAqIuUl87QLlF-3">
          <mxGeometry relative="1" as="geometry">
            <mxPoint x="280" y="240" as="targetPoint" />
            <Array as="points">
              <mxPoint x="281" y="360" />
              <mxPoint x="281" y="250" />
            </Array>
          </mxGeometry>
        </mxCell>
        <mxCell id="BPXdv4qKAqIuUl87QLlF-5" value="Input board[i]" style="shape=parallelogram;perimeter=parallelogramPerimeter;whiteSpace=wrap;html=1;fixedSize=1;" vertex="1" parent="1">
          <mxGeometry x="340" y="330" width="120" height="60" as="geometry" />
        </mxCell>
        <mxCell id="BPXdv4qKAqIuUl87QLlF-8" value="" style="edgeStyle=orthogonalEdgeStyle;rounded=0;orthogonalLoop=1;jettySize=auto;html=1;" edge="1" parent="1" source="BPXdv4qKAqIuUl87QLlF-7" target="BPXdv4qKAqIuUl87QLlF-3">
          <mxGeometry relative="1" as="geometry" />
        </mxCell>
        <mxCell id="BPXdv4qKAqIuUl87QLlF-7" value="std::vector&amp;lt;std::string&amp;gt; board(8)" style="rounded=0;whiteSpace=wrap;html=1;" vertex="1" parent="1">
          <mxGeometry x="320" y="120" width="160" height="60" as="geometry" />
        </mxCell>
        <mxCell id="BPXdv4qKAqIuUl87QLlF-13" value="" style="edgeStyle=orthogonalEdgeStyle;rounded=0;orthogonalLoop=1;jettySize=auto;html=1;" edge="1" parent="1" source="BPXdv4qKAqIuUl87QLlF-11" target="BPXdv4qKAqIuUl87QLlF-12">
          <mxGeometry relative="1" as="geometry" />
        </mxCell>
        <mxCell id="BPXdv4qKAqIuUl87QLlF-11" value="int Q" style="rounded=0;whiteSpace=wrap;html=1;" vertex="1" parent="1">
          <mxGeometry x="340" y="440" width="120" height="60" as="geometry" />
        </mxCell>
        <mxCell id="BPXdv4qKAqIuUl87QLlF-15" value="" style="edgeStyle=orthogonalEdgeStyle;rounded=0;orthogonalLoop=1;jettySize=auto;html=1;" edge="1" parent="1" source="BPXdv4qKAqIuUl87QLlF-12" target="BPXdv4qKAqIuUl87QLlF-14">
          <mxGeometry relative="1" as="geometry" />
        </mxCell>
        <mxCell id="BPXdv4qKAqIuUl87QLlF-12" value="Input Q" style="shape=parallelogram;perimeter=parallelogramPerimeter;whiteSpace=wrap;html=1;fixedSize=1;" vertex="1" parent="1">
          <mxGeometry x="340" y="540" width="120" height="60" as="geometry" />
        </mxCell>
        <mxCell id="BPXdv4qKAqIuUl87QLlF-17" value="" style="edgeStyle=orthogonalEdgeStyle;rounded=0;orthogonalLoop=1;jettySize=auto;html=1;" edge="1" parent="1" source="BPXdv4qKAqIuUl87QLlF-14" target="BPXdv4qKAqIuUl87QLlF-16">
          <mxGeometry relative="1" as="geometry" />
        </mxCell>
        <mxCell id="BPXdv4qKAqIuUl87QLlF-14" value="std::vector&amp;lt;std::pair&amp;lt;int,int&amp;gt;&amp;gt; coords(Q)" style="rounded=0;whiteSpace=wrap;html=1;" vertex="1" parent="1">
          <mxGeometry x="310" y="640" width="180" height="60" as="geometry" />
        </mxCell>
        <mxCell id="BPXdv4qKAqIuUl87QLlF-19" value="" style="edgeStyle=orthogonalEdgeStyle;rounded=0;orthogonalLoop=1;jettySize=auto;html=1;" edge="1" parent="1" source="BPXdv4qKAqIuUl87QLlF-16" target="BPXdv4qKAqIuUl87QLlF-18">
          <mxGeometry relative="1" as="geometry" />
        </mxCell>
        <mxCell id="BPXdv4qKAqIuUl87QLlF-23" style="edgeStyle=orthogonalEdgeStyle;rounded=0;orthogonalLoop=1;jettySize=auto;html=1;" edge="1" parent="1" source="BPXdv4qKAqIuUl87QLlF-16">
          <mxGeometry relative="1" as="geometry">
            <mxPoint x="560" y="880" as="targetPoint" />
          </mxGeometry>
        </mxCell>
        <mxCell id="BPXdv4qKAqIuUl87QLlF-16" value="int i=0; i&amp;lt;Q; i++" style="shape=hexagon;perimeter=hexagonPerimeter2;whiteSpace=wrap;html=1;fixedSize=1;" vertex="1" parent="1">
          <mxGeometry x="340" y="760" width="120" height="80" as="geometry" />
        </mxCell>
        <mxCell id="BPXdv4qKAqIuUl87QLlF-21" value="" style="edgeStyle=orthogonalEdgeStyle;rounded=0;orthogonalLoop=1;jettySize=auto;html=1;" edge="1" parent="1" source="BPXdv4qKAqIuUl87QLlF-18" target="BPXdv4qKAqIuUl87QLlF-20">
          <mxGeometry relative="1" as="geometry" />
        </mxCell>
        <mxCell id="BPXdv4qKAqIuUl87QLlF-18" value="Input coords[i].first &amp;amp; coords[i].second" style="shape=parallelogram;perimeter=parallelogramPerimeter;whiteSpace=wrap;html=1;fixedSize=1;" vertex="1" parent="1">
          <mxGeometry x="325" y="910" width="150" height="60" as="geometry" />
        </mxCell>
        <mxCell id="BPXdv4qKAqIuUl87QLlF-22" style="edgeStyle=orthogonalEdgeStyle;rounded=0;orthogonalLoop=1;jettySize=auto;html=1;entryX=0;entryY=0.5;entryDx=0;entryDy=0;" edge="1" parent="1" source="BPXdv4qKAqIuUl87QLlF-20" target="BPXdv4qKAqIuUl87QLlF-16">
          <mxGeometry relative="1" as="geometry">
            <mxPoint x="240" y="800" as="targetPoint" />
            <Array as="points">
              <mxPoint x="241" y="1050" />
              <mxPoint x="241" y="800" />
            </Array>
          </mxGeometry>
        </mxCell>
        <mxCell id="BPXdv4qKAqIuUl87QLlF-20" value="&lt;div&gt;coords[i].first--&lt;/div&gt;&lt;div&gt;coords[i].second--&lt;br&gt;&lt;/div&gt;" style="rounded=0;whiteSpace=wrap;html=1;" vertex="1" parent="1">
          <mxGeometry x="340" y="1020" width="120" height="60" as="geometry" />
        </mxCell>
        <mxCell id="BPXdv4qKAqIuUl87QLlF-25" style="edgeStyle=orthogonalEdgeStyle;rounded=0;orthogonalLoop=1;jettySize=auto;html=1;" edge="1" parent="1" source="BPXdv4qKAqIuUl87QLlF-24" target="BPXdv4qKAqIuUl87QLlF-26">
          <mxGeometry relative="1" as="geometry">
            <mxPoint x="560" y="1020" as="targetPoint" />
          </mxGeometry>
        </mxCell>
        <mxCell id="BPXdv4qKAqIuUl87QLlF-24" value="auto &amp;amp;[x,y] : coords" style="shape=hexagon;perimeter=hexagonPerimeter2;whiteSpace=wrap;html=1;fixedSize=1;" vertex="1" parent="1">
          <mxGeometry x="500" y="880" width="120" height="80" as="geometry" />
        </mxCell>
        <mxCell id="BPXdv4qKAqIuUl87QLlF-28" value="" style="edgeStyle=orthogonalEdgeStyle;rounded=0;orthogonalLoop=1;jettySize=auto;html=1;" edge="1" parent="1" source="BPXdv4qKAqIuUl87QLlF-26" target="BPXdv4qKAqIuUl87QLlF-27">
          <mxGeometry relative="1" as="geometry" />
        </mxCell>
        <mxCell id="BPXdv4qKAqIuUl87QLlF-26" value="attackers(board, x, y)" style="shape=process;whiteSpace=wrap;html=1;backgroundOutline=1;" vertex="1" parent="1">
          <mxGeometry x="485" y="1010" width="150" height="60" as="geometry" />
        </mxCell>
        <mxCell id="BPXdv4qKAqIuUl87QLlF-30" value="" style="edgeStyle=orthogonalEdgeStyle;rounded=0;orthogonalLoop=1;jettySize=auto;html=1;" edge="1" parent="1" source="BPXdv4qKAqIuUl87QLlF-27" target="BPXdv4qKAqIuUl87QLlF-29">
          <mxGeometry relative="1" as="geometry" />
        </mxCell>
        <mxCell id="BPXdv4qKAqIuUl87QLlF-27" value="Output&amp;nbsp;attackers(board, x, y) " style="shape=parallelogram;perimeter=parallelogramPerimeter;whiteSpace=wrap;html=1;fixedSize=1;" vertex="1" parent="1">
          <mxGeometry x="465" y="1120" width="190" height="60" as="geometry" />
        </mxCell>
        <mxCell id="BPXdv4qKAqIuUl87QLlF-29" value="End" style="ellipse;whiteSpace=wrap;html=1;" vertex="1" parent="1">
          <mxGeometry x="500" y="1230" width="120" height="80" as="geometry" />
        </mxCell>
        <mxCell id="BPXdv4qKAqIuUl87QLlF-31" value="&lt;font size=&quot;1&quot;&gt;&lt;b style=&quot;font-size: 18px;&quot;&gt;&amp;nbsp;std::string attackers(std::vector&amp;lt;std::string&amp;gt; &amp;amp;board, int x, int y)&lt;/b&gt;&lt;/font&gt;" style="text;html=1;align=center;verticalAlign=middle;resizable=0;points=[];autosize=1;strokeColor=none;fillColor=none;" vertex="1" parent="1">
          <mxGeometry x="840" y="-47" width="580" height="40" as="geometry" />
        </mxCell>
        <mxCell id="BPXdv4qKAqIuUl87QLlF-34" value="" style="edgeStyle=orthogonalEdgeStyle;rounded=0;orthogonalLoop=1;jettySize=auto;html=1;" edge="1" parent="1" source="BPXdv4qKAqIuUl87QLlF-32" target="BPXdv4qKAqIuUl87QLlF-33">
          <mxGeometry relative="1" as="geometry" />
        </mxCell>
        <mxCell id="BPXdv4qKAqIuUl87QLlF-32" value="Start" style="ellipse;whiteSpace=wrap;html=1;" vertex="1" parent="1">
          <mxGeometry x="1070" y="10" width="120" height="80" as="geometry" />
        </mxCell>
        <mxCell id="BPXdv4qKAqIuUl87QLlF-35" style="edgeStyle=orthogonalEdgeStyle;rounded=0;orthogonalLoop=1;jettySize=auto;html=1;" edge="1" parent="1" source="BPXdv4qKAqIuUl87QLlF-33">
          <mxGeometry relative="1" as="geometry">
            <mxPoint x="1300" y="180" as="targetPoint" />
          </mxGeometry>
        </mxCell>
        <mxCell id="BPXdv4qKAqIuUl87QLlF-37" value="Yes" style="edgeLabel;html=1;align=center;verticalAlign=middle;resizable=0;points=[];" connectable="0" vertex="1" parent="BPXdv4qKAqIuUl87QLlF-35">
          <mxGeometry x="-0.1642" relative="1" as="geometry">
            <mxPoint as="offset" />
          </mxGeometry>
        </mxCell>
        <mxCell id="BPXdv4qKAqIuUl87QLlF-39" value="" style="edgeStyle=orthogonalEdgeStyle;rounded=0;orthogonalLoop=1;jettySize=auto;html=1;" edge="1" parent="1" source="BPXdv4qKAqIuUl87QLlF-33" target="BPXdv4qKAqIuUl87QLlF-38">
          <mxGeometry relative="1" as="geometry" />
        </mxCell>
        <mxCell id="BPXdv4qKAqIuUl87QLlF-40" value="No" style="edgeLabel;html=1;align=center;verticalAlign=middle;resizable=0;points=[];" connectable="0" vertex="1" parent="BPXdv4qKAqIuUl87QLlF-39">
          <mxGeometry x="-0.12" relative="1" as="geometry">
            <mxPoint as="offset" />
          </mxGeometry>
        </mxCell>
        <mxCell id="BPXdv4qKAqIuUl87QLlF-33" value="board[x][y]!=&#39;O&#39;?" style="rhombus;whiteSpace=wrap;html=1;" vertex="1" parent="1">
          <mxGeometry x="1060" y="140" width="140" height="80" as="geometry" />
        </mxCell>
        <mxCell id="BPXdv4qKAqIuUl87QLlF-36" value="return &quot;X&quot;" style="ellipse;whiteSpace=wrap;html=1;" vertex="1" parent="1">
          <mxGeometry x="1300" y="140" width="120" height="80" as="geometry" />
        </mxCell>
        <mxCell id="BPXdv4qKAqIuUl87QLlF-42" value="" style="edgeStyle=orthogonalEdgeStyle;rounded=0;orthogonalLoop=1;jettySize=auto;html=1;" edge="1" parent="1" source="BPXdv4qKAqIuUl87QLlF-38" target="BPXdv4qKAqIuUl87QLlF-41">
          <mxGeometry relative="1" as="geometry" />
        </mxCell>
        <mxCell id="BPXdv4qKAqIuUl87QLlF-38" value="std::set&amp;lt;char&amp;gt; attack;" style="rounded=0;whiteSpace=wrap;html=1;" vertex="1" parent="1">
          <mxGeometry x="1070" y="270" width="120" height="60" as="geometry" />
        </mxCell>
        <mxCell id="BPXdv4qKAqIuUl87QLlF-44" style="edgeStyle=orthogonalEdgeStyle;rounded=0;orthogonalLoop=1;jettySize=auto;html=1;entryX=0.5;entryY=0;entryDx=0;entryDy=0;" edge="1" parent="1" source="BPXdv4qKAqIuUl87QLlF-41" target="BPXdv4qKAqIuUl87QLlF-43">
          <mxGeometry relative="1" as="geometry" />
        </mxCell>
        <mxCell id="BPXdv4qKAqIuUl87QLlF-41" value="x&amp;gt;0?" style="rhombus;whiteSpace=wrap;html=1;" vertex="1" parent="1">
          <mxGeometry x="1060" y="380" width="140" height="80" as="geometry" />
        </mxCell>
        <mxCell id="BPXdv4qKAqIuUl87QLlF-45" style="edgeStyle=orthogonalEdgeStyle;rounded=0;orthogonalLoop=1;jettySize=auto;html=1;" edge="1" parent="1" source="BPXdv4qKAqIuUl87QLlF-43" target="BPXdv4qKAqIuUl87QLlF-46">
          <mxGeometry relative="1" as="geometry">
            <mxPoint x="1280" y="550" as="targetPoint" />
          </mxGeometry>
        </mxCell>
        <mxCell id="BPXdv4qKAqIuUl87QLlF-51" value="Yes" style="edgeLabel;html=1;align=center;verticalAlign=middle;resizable=0;points=[];" connectable="0" vertex="1" parent="BPXdv4qKAqIuUl87QLlF-45">
          <mxGeometry x="-0.1897" relative="1" as="geometry">
            <mxPoint as="offset" />
          </mxGeometry>
        </mxCell>
        <mxCell id="BPXdv4qKAqIuUl87QLlF-48" style="edgeStyle=orthogonalEdgeStyle;rounded=0;orthogonalLoop=1;jettySize=auto;html=1;" edge="1" parent="1" source="BPXdv4qKAqIuUl87QLlF-43">
          <mxGeometry relative="1" as="geometry">
            <mxPoint x="1130" y="730" as="targetPoint" />
          </mxGeometry>
        </mxCell>
        <mxCell id="BPXdv4qKAqIuUl87QLlF-50" value="No" style="edgeLabel;html=1;align=center;verticalAlign=middle;resizable=0;points=[];" connectable="0" vertex="1" parent="BPXdv4qKAqIuUl87QLlF-48">
          <mxGeometry x="-0.031" relative="1" as="geometry">
            <mxPoint as="offset" />
          </mxGeometry>
        </mxCell>
        <mxCell id="BPXdv4qKAqIuUl87QLlF-43" value="y&amp;gt;0 &amp;amp; board[x-1][y-1]==&#39;P&#39;?" style="rhombus;whiteSpace=wrap;html=1;" vertex="1" parent="1">
          <mxGeometry x="1038.75" y="510" width="182.5" height="80" as="geometry" />
        </mxCell>
        <mxCell id="BPXdv4qKAqIuUl87QLlF-47" style="edgeStyle=orthogonalEdgeStyle;rounded=0;orthogonalLoop=1;jettySize=auto;html=1;entryX=1;entryY=0.5;entryDx=0;entryDy=0;" edge="1" parent="1" source="BPXdv4qKAqIuUl87QLlF-46" target="BPXdv4qKAqIuUl87QLlF-49">
          <mxGeometry relative="1" as="geometry">
            <mxPoint x="1330" y="760" as="targetPoint" />
            <Array as="points">
              <mxPoint x="1330" y="770" />
            </Array>
          </mxGeometry>
        </mxCell>
        <mxCell id="BPXdv4qKAqIuUl87QLlF-46" value="attack.insert(&#39;P&#39;)" style="rounded=0;whiteSpace=wrap;html=1;" vertex="1" parent="1">
          <mxGeometry x="1270" y="520" width="120" height="60" as="geometry" />
        </mxCell>
        <mxCell id="BPXdv4qKAqIuUl87QLlF-52" style="edgeStyle=orthogonalEdgeStyle;rounded=0;orthogonalLoop=1;jettySize=auto;html=1;" edge="1" parent="1" source="BPXdv4qKAqIuUl87QLlF-53">
          <mxGeometry relative="1" as="geometry">
            <mxPoint x="948.75" y="890" as="targetPoint" />
          </mxGeometry>
        </mxCell>
        <mxCell id="BPXdv4qKAqIuUl87QLlF-56" style="edgeStyle=orthogonalEdgeStyle;rounded=0;orthogonalLoop=1;jettySize=auto;html=1;" edge="1" parent="1" source="BPXdv4qKAqIuUl87QLlF-49">
          <mxGeometry relative="1" as="geometry">
            <mxPoint x="1130" y="890" as="targetPoint" />
          </mxGeometry>
        </mxCell>
        <mxCell id="BPXdv4qKAqIuUl87QLlF-49" value="y&amp;lt;7 &amp;amp; board[x-1][y+1]==&#39;P&#39;?" style="rhombus;whiteSpace=wrap;html=1;" vertex="1" parent="1">
          <mxGeometry x="1038.75" y="730" width="182.5" height="80" as="geometry" />
        </mxCell>
        <mxCell id="BPXdv4qKAqIuUl87QLlF-54" value="" style="edgeStyle=orthogonalEdgeStyle;rounded=0;orthogonalLoop=1;jettySize=auto;html=1;exitX=0;exitY=0.5;exitDx=0;exitDy=0;" edge="1" parent="1" source="BPXdv4qKAqIuUl87QLlF-49" target="BPXdv4qKAqIuUl87QLlF-53">
          <mxGeometry relative="1" as="geometry">
            <mxPoint x="948.75" y="890" as="targetPoint" />
            <mxPoint x="1007.5" y="770" as="sourcePoint" />
          </mxGeometry>
        </mxCell>
        <mxCell id="BPXdv4qKAqIuUl87QLlF-55" value="Yes" style="edgeLabel;html=1;align=center;verticalAlign=middle;resizable=0;points=[];" connectable="0" vertex="1" parent="BPXdv4qKAqIuUl87QLlF-54">
          <mxGeometry x="-0.6471" relative="1" as="geometry">
            <mxPoint as="offset" />
          </mxGeometry>
        </mxCell>
        <mxCell id="BPXdv4qKAqIuUl87QLlF-58" value="" style="edgeStyle=orthogonalEdgeStyle;rounded=0;orthogonalLoop=1;jettySize=auto;html=1;entryX=0;entryY=0.5;entryDx=0;entryDy=0;" edge="1" parent="1" source="BPXdv4qKAqIuUl87QLlF-53" target="BPXdv4qKAqIuUl87QLlF-57">
          <mxGeometry relative="1" as="geometry">
            <mxPoint x="1039" y="920" as="targetPoint" />
          </mxGeometry>
        </mxCell>
        <mxCell id="BPXdv4qKAqIuUl87QLlF-53" value="attack.insert(&#39;P&#39;)" style="rounded=0;whiteSpace=wrap;html=1;" vertex="1" parent="1">
          <mxGeometry x="887.5" y="890" width="120" height="60" as="geometry" />
        </mxCell>
        <mxCell id="BPXdv4qKAqIuUl87QLlF-60" value="" style="edgeStyle=orthogonalEdgeStyle;rounded=0;orthogonalLoop=1;jettySize=auto;html=1;" edge="1" parent="1" source="BPXdv4qKAqIuUl87QLlF-57" target="BPXdv4qKAqIuUl87QLlF-59">
          <mxGeometry relative="1" as="geometry" />
        </mxCell>
        <mxCell id="BPXdv4qKAqIuUl87QLlF-57" value="std::vector&amp;lt;std::pair&amp;lt;int,int&amp;gt;&amp;gt; knight = ..." style="rounded=0;whiteSpace=wrap;html=1;" vertex="1" parent="1">
          <mxGeometry x="1050" y="890" width="160" height="60" as="geometry" />
        </mxCell>
        <mxCell id="BPXdv4qKAqIuUl87QLlF-61" style="edgeStyle=orthogonalEdgeStyle;rounded=0;orthogonalLoop=1;jettySize=auto;html=1;" edge="1" parent="1" source="BPXdv4qKAqIuUl87QLlF-59" target="BPXdv4qKAqIuUl87QLlF-62">
          <mxGeometry relative="1" as="geometry">
            <mxPoint x="1130" y="1140" as="targetPoint" />
          </mxGeometry>
        </mxCell>
        <mxCell id="BPXdv4qKAqIuUl87QLlF-71" style="edgeStyle=orthogonalEdgeStyle;rounded=0;orthogonalLoop=1;jettySize=auto;html=1;" edge="1" parent="1" source="BPXdv4qKAqIuUl87QLlF-59" target="BPXdv4qKAqIuUl87QLlF-72">
          <mxGeometry relative="1" as="geometry">
            <mxPoint x="1370" y="1470" as="targetPoint" />
          </mxGeometry>
        </mxCell>
        <mxCell id="BPXdv4qKAqIuUl87QLlF-59" value="auto &amp;amp;[one, two] : knight" style="shape=hexagon;perimeter=hexagonPerimeter2;whiteSpace=wrap;html=1;fixedSize=1;" vertex="1" parent="1">
          <mxGeometry x="1070" y="990" width="120" height="80" as="geometry" />
        </mxCell>
        <mxCell id="BPXdv4qKAqIuUl87QLlF-63" style="edgeStyle=orthogonalEdgeStyle;rounded=0;orthogonalLoop=1;jettySize=auto;html=1;" edge="1" parent="1" source="BPXdv4qKAqIuUl87QLlF-62">
          <mxGeometry relative="1" as="geometry">
            <mxPoint x="1130" y="1250" as="targetPoint" />
          </mxGeometry>
        </mxCell>
        <mxCell id="BPXdv4qKAqIuUl87QLlF-62" value="&lt;div&gt;int onen = x+one;&lt;/div&gt;&lt;div&gt;int twon = y+two&lt;br&gt;&lt;/div&gt;" style="rounded=0;whiteSpace=wrap;html=1;" vertex="1" parent="1">
          <mxGeometry x="1070" y="1120" width="120" height="60" as="geometry" />
        </mxCell>
        <mxCell id="BPXdv4qKAqIuUl87QLlF-65" style="edgeStyle=orthogonalEdgeStyle;rounded=0;orthogonalLoop=1;jettySize=auto;html=1;" edge="1" parent="1" source="BPXdv4qKAqIuUl87QLlF-64">
          <mxGeometry relative="1" as="geometry">
            <mxPoint x="1130" y="1450" as="targetPoint" />
          </mxGeometry>
        </mxCell>
        <mxCell id="BPXdv4qKAqIuUl87QLlF-69" value="Yes" style="edgeLabel;html=1;align=center;verticalAlign=middle;resizable=0;points=[];" connectable="0" vertex="1" parent="BPXdv4qKAqIuUl87QLlF-65">
          <mxGeometry x="-0.1736" relative="1" as="geometry">
            <mxPoint as="offset" />
          </mxGeometry>
        </mxCell>
        <mxCell id="BPXdv4qKAqIuUl87QLlF-68" style="edgeStyle=orthogonalEdgeStyle;rounded=0;orthogonalLoop=1;jettySize=auto;html=1;entryX=1;entryY=0.75;entryDx=0;entryDy=0;" edge="1" parent="1" source="BPXdv4qKAqIuUl87QLlF-64" target="BPXdv4qKAqIuUl87QLlF-59">
          <mxGeometry relative="1" as="geometry">
            <Array as="points">
              <mxPoint x="1290" y="1320" />
              <mxPoint x="1290" y="1090" />
              <mxPoint x="1181" y="1090" />
            </Array>
          </mxGeometry>
        </mxCell>
        <mxCell id="BPXdv4qKAqIuUl87QLlF-70" value="No" style="edgeLabel;html=1;align=center;verticalAlign=middle;resizable=0;points=[];" connectable="0" vertex="1" parent="BPXdv4qKAqIuUl87QLlF-68">
          <mxGeometry x="-0.1172" relative="1" as="geometry">
            <mxPoint as="offset" />
          </mxGeometry>
        </mxCell>
        <mxCell id="BPXdv4qKAqIuUl87QLlF-64" value="&lt;div&gt;onen&amp;gt;=0 &amp;amp; onen&amp;lt;8&lt;/div&gt;&lt;div&gt;&amp;amp; twon&amp;gt;=0 &amp;amp; twon&amp;lt;8&lt;/div&gt;&lt;div&gt;&amp;amp;board[onen][twon]==&#39;N&#39;?&lt;br&gt;&lt;/div&gt;" style="rhombus;whiteSpace=wrap;html=1;" vertex="1" parent="1">
          <mxGeometry x="1015" y="1250" width="230" height="140" as="geometry" />
        </mxCell>
        <mxCell id="BPXdv4qKAqIuUl87QLlF-67" style="edgeStyle=orthogonalEdgeStyle;rounded=0;orthogonalLoop=1;jettySize=auto;html=1;entryX=0;entryY=0.5;entryDx=0;entryDy=0;" edge="1" parent="1" source="BPXdv4qKAqIuUl87QLlF-66" target="BPXdv4qKAqIuUl87QLlF-59">
          <mxGeometry relative="1" as="geometry">
            <mxPoint x="970" y="1040" as="targetPoint" />
            <Array as="points">
              <mxPoint x="971" y="1480" />
              <mxPoint x="971" y="1030" />
            </Array>
          </mxGeometry>
        </mxCell>
        <mxCell id="BPXdv4qKAqIuUl87QLlF-66" value="attack.insert(&#39;N&#39;)" style="rounded=0;whiteSpace=wrap;html=1;" vertex="1" parent="1">
          <mxGeometry x="1070" y="1450" width="120" height="60" as="geometry" />
        </mxCell>
        <mxCell id="BPXdv4qKAqIuUl87QLlF-72" value="1" style="ellipse;whiteSpace=wrap;html=1;aspect=fixed;" vertex="1" parent="1">
          <mxGeometry x="1350" y="1440" width="30" height="30" as="geometry" />
        </mxCell>
        <mxCell id="BPXdv4qKAqIuUl87QLlF-76" value="" style="edgeStyle=orthogonalEdgeStyle;rounded=0;orthogonalLoop=1;jettySize=auto;html=1;" edge="1" parent="1" source="BPXdv4qKAqIuUl87QLlF-74" target="BPXdv4qKAqIuUl87QLlF-75">
          <mxGeometry relative="1" as="geometry" />
        </mxCell>
        <mxCell id="BPXdv4qKAqIuUl87QLlF-74" value="1" style="ellipse;whiteSpace=wrap;html=1;aspect=fixed;" vertex="1" parent="1">
          <mxGeometry x="1750" y="-160" width="30" height="30" as="geometry" />
        </mxCell>
        <mxCell id="BPXdv4qKAqIuUl87QLlF-77" style="edgeStyle=orthogonalEdgeStyle;rounded=0;orthogonalLoop=1;jettySize=auto;html=1;" edge="1" parent="1" source="BPXdv4qKAqIuUl87QLlF-75">
          <mxGeometry relative="1" as="geometry">
            <mxPoint x="1765" y="85" as="targetPoint" />
          </mxGeometry>
        </mxCell>
        <mxCell id="BPXdv4qKAqIuUl87QLlF-85" style="edgeStyle=orthogonalEdgeStyle;rounded=0;orthogonalLoop=1;jettySize=auto;html=1;" edge="1" parent="1" source="BPXdv4qKAqIuUl87QLlF-75">
          <mxGeometry relative="1" as="geometry">
            <mxPoint x="1939.9999999999995" y="365" as="targetPoint" />
          </mxGeometry>
        </mxCell>
        <mxCell id="BPXdv4qKAqIuUl87QLlF-75" value="int i=1, x+i&amp;lt;8 &amp;amp;&amp;amp; y+i&amp;lt;8; i++" style="shape=hexagon;perimeter=hexagonPerimeter2;whiteSpace=wrap;html=1;fixedSize=1;" vertex="1" parent="1">
          <mxGeometry x="1705" y="-65" width="120" height="80" as="geometry" />
        </mxCell>
        <mxCell id="BPXdv4qKAqIuUl87QLlF-79" style="edgeStyle=orthogonalEdgeStyle;rounded=0;orthogonalLoop=1;jettySize=auto;html=1;" edge="1" parent="1" source="BPXdv4qKAqIuUl87QLlF-78">
          <mxGeometry relative="1" as="geometry">
            <mxPoint x="1765" y="215" as="targetPoint" />
          </mxGeometry>
        </mxCell>
        <mxCell id="BPXdv4qKAqIuUl87QLlF-84" value="Yes" style="edgeLabel;html=1;align=center;verticalAlign=middle;resizable=0;points=[];" connectable="0" vertex="1" parent="BPXdv4qKAqIuUl87QLlF-79">
          <mxGeometry x="-0.2255" relative="1" as="geometry">
            <mxPoint as="offset" />
          </mxGeometry>
        </mxCell>
        <mxCell id="BPXdv4qKAqIuUl87QLlF-81" style="edgeStyle=orthogonalEdgeStyle;rounded=0;orthogonalLoop=1;jettySize=auto;html=1;entryX=0;entryY=0.5;entryDx=0;entryDy=0;" edge="1" parent="1" source="BPXdv4qKAqIuUl87QLlF-78" target="BPXdv4qKAqIuUl87QLlF-75">
          <mxGeometry relative="1" as="geometry">
            <mxPoint x="1650" y="-25" as="targetPoint" />
            <Array as="points">
              <mxPoint x="1630" y="125" />
              <mxPoint x="1630" y="-25" />
            </Array>
          </mxGeometry>
        </mxCell>
        <mxCell id="BPXdv4qKAqIuUl87QLlF-83" value="No" style="edgeLabel;html=1;align=center;verticalAlign=middle;resizable=0;points=[];" connectable="0" vertex="1" parent="BPXdv4qKAqIuUl87QLlF-81">
          <mxGeometry x="-0.7265" relative="1" as="geometry">
            <mxPoint as="offset" />
          </mxGeometry>
        </mxCell>
        <mxCell id="BPXdv4qKAqIuUl87QLlF-78" value="&lt;div&gt;board[x+i][y+i] == &#39;B&#39;&amp;nbsp;&lt;/div&gt;&lt;div&gt;or ... == &#39;Q&#39;?&lt;/div&gt;" style="rhombus;whiteSpace=wrap;html=1;" vertex="1" parent="1">
          <mxGeometry x="1677.5" y="85" width="175" height="80" as="geometry" />
        </mxCell>
        <mxCell id="BPXdv4qKAqIuUl87QLlF-82" style="edgeStyle=orthogonalEdgeStyle;rounded=0;orthogonalLoop=1;jettySize=auto;html=1;entryX=0;entryY=0.25;entryDx=0;entryDy=0;" edge="1" parent="1" source="BPXdv4qKAqIuUl87QLlF-80" target="BPXdv4qKAqIuUl87QLlF-75">
          <mxGeometry relative="1" as="geometry">
            <mxPoint x="1580" y="-125" as="targetPoint" />
            <Array as="points">
              <mxPoint x="1530" y="245" />
              <mxPoint x="1530" y="-85" />
              <mxPoint x="1714" y="-85" />
            </Array>
          </mxGeometry>
        </mxCell>
        <mxCell id="BPXdv4qKAqIuUl87QLlF-80" value="attack.insert(board[x+i][y+i])" style="rounded=0;whiteSpace=wrap;html=1;" vertex="1" parent="1">
          <mxGeometry x="1697.5" y="215" width="135" height="60" as="geometry" />
        </mxCell>
        <mxCell id="BPXdv4qKAqIuUl87QLlF-86" value="" style="edgeStyle=orthogonalEdgeStyle;rounded=0;orthogonalLoop=1;jettySize=auto;html=1;" edge="1" parent="1" target="BPXdv4qKAqIuUl87QLlF-88">
          <mxGeometry relative="1" as="geometry">
            <mxPoint x="1940" y="290" as="sourcePoint" />
          </mxGeometry>
        </mxCell>
        <mxCell id="BPXdv4qKAqIuUl87QLlF-87" style="edgeStyle=orthogonalEdgeStyle;rounded=0;orthogonalLoop=1;jettySize=auto;html=1;" edge="1" parent="1" source="BPXdv4qKAqIuUl87QLlF-88">
          <mxGeometry relative="1" as="geometry">
            <mxPoint x="1940" y="505" as="targetPoint" />
          </mxGeometry>
        </mxCell>
        <mxCell id="BPXdv4qKAqIuUl87QLlF-106" style="edgeStyle=orthogonalEdgeStyle;rounded=0;orthogonalLoop=1;jettySize=auto;html=1;entryX=0.5;entryY=0;entryDx=0;entryDy=0;" edge="1" parent="1" source="BPXdv4qKAqIuUl87QLlF-88" target="BPXdv4qKAqIuUl87QLlF-98">
          <mxGeometry relative="1" as="geometry" />
        </mxCell>
        <mxCell id="BPXdv4qKAqIuUl87QLlF-88" value="int i=1, x+i&amp;lt;8 &amp;amp;&amp;amp; y-i&amp;gt;=0; i++" style="shape=hexagon;perimeter=hexagonPerimeter2;whiteSpace=wrap;html=1;fixedSize=1;" vertex="1" parent="1">
          <mxGeometry x="1880" y="355" width="120" height="80" as="geometry" />
        </mxCell>
        <mxCell id="BPXdv4qKAqIuUl87QLlF-89" style="edgeStyle=orthogonalEdgeStyle;rounded=0;orthogonalLoop=1;jettySize=auto;html=1;" edge="1" parent="1" source="BPXdv4qKAqIuUl87QLlF-93">
          <mxGeometry relative="1" as="geometry">
            <mxPoint x="1940" y="635" as="targetPoint" />
          </mxGeometry>
        </mxCell>
        <mxCell id="BPXdv4qKAqIuUl87QLlF-90" value="Yes" style="edgeLabel;html=1;align=center;verticalAlign=middle;resizable=0;points=[];" connectable="0" vertex="1" parent="BPXdv4qKAqIuUl87QLlF-89">
          <mxGeometry x="-0.2255" relative="1" as="geometry">
            <mxPoint as="offset" />
          </mxGeometry>
        </mxCell>
        <mxCell id="BPXdv4qKAqIuUl87QLlF-91" style="edgeStyle=orthogonalEdgeStyle;rounded=0;orthogonalLoop=1;jettySize=auto;html=1;entryX=0;entryY=0.5;entryDx=0;entryDy=0;" edge="1" parent="1" source="BPXdv4qKAqIuUl87QLlF-93" target="BPXdv4qKAqIuUl87QLlF-88">
          <mxGeometry relative="1" as="geometry">
            <mxPoint x="1825" y="395" as="targetPoint" />
            <Array as="points">
              <mxPoint x="1805" y="545" />
              <mxPoint x="1805" y="395" />
            </Array>
          </mxGeometry>
        </mxCell>
        <mxCell id="BPXdv4qKAqIuUl87QLlF-92" value="No" style="edgeLabel;html=1;align=center;verticalAlign=middle;resizable=0;points=[];" connectable="0" vertex="1" parent="BPXdv4qKAqIuUl87QLlF-91">
          <mxGeometry x="-0.7265" relative="1" as="geometry">
            <mxPoint as="offset" />
          </mxGeometry>
        </mxCell>
        <mxCell id="BPXdv4qKAqIuUl87QLlF-93" value="&lt;div&gt;board[x+i][y-i] == &#39;B&#39;&amp;nbsp;&lt;/div&gt;&lt;div&gt;or ... == &#39;Q&#39;?&lt;/div&gt;" style="rhombus;whiteSpace=wrap;html=1;" vertex="1" parent="1">
          <mxGeometry x="1852.5" y="505" width="175" height="80" as="geometry" />
        </mxCell>
        <mxCell id="BPXdv4qKAqIuUl87QLlF-94" style="edgeStyle=orthogonalEdgeStyle;rounded=0;orthogonalLoop=1;jettySize=auto;html=1;entryX=0;entryY=0.25;entryDx=0;entryDy=0;" edge="1" parent="1" source="BPXdv4qKAqIuUl87QLlF-95" target="BPXdv4qKAqIuUl87QLlF-88">
          <mxGeometry relative="1" as="geometry">
            <mxPoint x="1755" y="295" as="targetPoint" />
            <Array as="points">
              <mxPoint x="1705" y="665" />
              <mxPoint x="1705" y="335" />
              <mxPoint x="1889" y="335" />
            </Array>
          </mxGeometry>
        </mxCell>
        <mxCell id="BPXdv4qKAqIuUl87QLlF-95" value="attack.insert(board[x+i][y-i])" style="rounded=0;whiteSpace=wrap;html=1;" vertex="1" parent="1">
          <mxGeometry x="1872.5" y="635" width="135" height="60" as="geometry" />
        </mxCell>
        <mxCell id="BPXdv4qKAqIuUl87QLlF-96" value="" style="edgeStyle=orthogonalEdgeStyle;rounded=0;orthogonalLoop=1;jettySize=auto;html=1;" edge="1" parent="1" target="BPXdv4qKAqIuUl87QLlF-98">
          <mxGeometry relative="1" as="geometry">
            <mxPoint x="2145" y="675" as="sourcePoint" />
          </mxGeometry>
        </mxCell>
        <mxCell id="BPXdv4qKAqIuUl87QLlF-97" style="edgeStyle=orthogonalEdgeStyle;rounded=0;orthogonalLoop=1;jettySize=auto;html=1;" edge="1" parent="1" source="BPXdv4qKAqIuUl87QLlF-98">
          <mxGeometry relative="1" as="geometry">
            <mxPoint x="2145" y="890" as="targetPoint" />
          </mxGeometry>
        </mxCell>
        <mxCell id="BPXdv4qKAqIuUl87QLlF-117" style="edgeStyle=orthogonalEdgeStyle;rounded=0;orthogonalLoop=1;jettySize=auto;html=1;entryX=0.5;entryY=0;entryDx=0;entryDy=0;" edge="1" parent="1" source="BPXdv4qKAqIuUl87QLlF-98" target="BPXdv4qKAqIuUl87QLlF-109">
          <mxGeometry relative="1" as="geometry" />
        </mxCell>
        <mxCell id="BPXdv4qKAqIuUl87QLlF-98" value="int i=1, x-i&amp;gt;=0 &amp;amp;&amp;amp; y+i&amp;lt;8; i++" style="shape=hexagon;perimeter=hexagonPerimeter2;whiteSpace=wrap;html=1;fixedSize=1;" vertex="1" parent="1">
          <mxGeometry x="2085" y="740" width="120" height="80" as="geometry" />
        </mxCell>
        <mxCell id="BPXdv4qKAqIuUl87QLlF-99" style="edgeStyle=orthogonalEdgeStyle;rounded=0;orthogonalLoop=1;jettySize=auto;html=1;" edge="1" parent="1" source="BPXdv4qKAqIuUl87QLlF-103">
          <mxGeometry relative="1" as="geometry">
            <mxPoint x="2145" y="1020" as="targetPoint" />
          </mxGeometry>
        </mxCell>
        <mxCell id="BPXdv4qKAqIuUl87QLlF-100" value="Yes" style="edgeLabel;html=1;align=center;verticalAlign=middle;resizable=0;points=[];" connectable="0" vertex="1" parent="BPXdv4qKAqIuUl87QLlF-99">
          <mxGeometry x="-0.2255" relative="1" as="geometry">
            <mxPoint as="offset" />
          </mxGeometry>
        </mxCell>
        <mxCell id="BPXdv4qKAqIuUl87QLlF-101" style="edgeStyle=orthogonalEdgeStyle;rounded=0;orthogonalLoop=1;jettySize=auto;html=1;entryX=0;entryY=0.5;entryDx=0;entryDy=0;" edge="1" parent="1" source="BPXdv4qKAqIuUl87QLlF-103" target="BPXdv4qKAqIuUl87QLlF-98">
          <mxGeometry relative="1" as="geometry">
            <mxPoint x="2030" y="780" as="targetPoint" />
            <Array as="points">
              <mxPoint x="2010" y="930" />
              <mxPoint x="2010" y="780" />
            </Array>
          </mxGeometry>
        </mxCell>
        <mxCell id="BPXdv4qKAqIuUl87QLlF-102" value="No" style="edgeLabel;html=1;align=center;verticalAlign=middle;resizable=0;points=[];" connectable="0" vertex="1" parent="BPXdv4qKAqIuUl87QLlF-101">
          <mxGeometry x="-0.7265" relative="1" as="geometry">
            <mxPoint as="offset" />
          </mxGeometry>
        </mxCell>
        <mxCell id="BPXdv4qKAqIuUl87QLlF-103" value="&lt;div&gt;board[x-i][y+i] == &#39;B&#39;&amp;nbsp;&lt;/div&gt;&lt;div&gt;or ... == &#39;Q&#39;?&lt;/div&gt;" style="rhombus;whiteSpace=wrap;html=1;" vertex="1" parent="1">
          <mxGeometry x="2057.5" y="890" width="175" height="80" as="geometry" />
        </mxCell>
        <mxCell id="BPXdv4qKAqIuUl87QLlF-104" style="edgeStyle=orthogonalEdgeStyle;rounded=0;orthogonalLoop=1;jettySize=auto;html=1;entryX=0;entryY=0.25;entryDx=0;entryDy=0;" edge="1" parent="1" source="BPXdv4qKAqIuUl87QLlF-105" target="BPXdv4qKAqIuUl87QLlF-98">
          <mxGeometry relative="1" as="geometry">
            <mxPoint x="1960" y="680" as="targetPoint" />
            <Array as="points">
              <mxPoint x="1910" y="1050" />
              <mxPoint x="1910" y="720" />
              <mxPoint x="2094" y="720" />
            </Array>
          </mxGeometry>
        </mxCell>
        <mxCell id="BPXdv4qKAqIuUl87QLlF-105" value="attack.insert(board[x-i][y+i])" style="rounded=0;whiteSpace=wrap;html=1;" vertex="1" parent="1">
          <mxGeometry x="2077.5" y="1020" width="135" height="60" as="geometry" />
        </mxCell>
        <mxCell id="BPXdv4qKAqIuUl87QLlF-107" value="" style="edgeStyle=orthogonalEdgeStyle;rounded=0;orthogonalLoop=1;jettySize=auto;html=1;" edge="1" parent="1" target="BPXdv4qKAqIuUl87QLlF-109">
          <mxGeometry relative="1" as="geometry">
            <mxPoint x="2375" y="1075" as="sourcePoint" />
          </mxGeometry>
        </mxCell>
        <mxCell id="BPXdv4qKAqIuUl87QLlF-108" style="edgeStyle=orthogonalEdgeStyle;rounded=0;orthogonalLoop=1;jettySize=auto;html=1;" edge="1" parent="1" source="BPXdv4qKAqIuUl87QLlF-109">
          <mxGeometry relative="1" as="geometry">
            <mxPoint x="2375" y="1290" as="targetPoint" />
          </mxGeometry>
        </mxCell>
        <mxCell id="BPXdv4qKAqIuUl87QLlF-109" value="int i=1, x-i&amp;gt;=0 &amp;amp;&amp;amp; y-i&amp;gt;=0; i++" style="shape=hexagon;perimeter=hexagonPerimeter2;whiteSpace=wrap;html=1;fixedSize=1;" vertex="1" parent="1">
          <mxGeometry x="2315" y="1140" width="120" height="80" as="geometry" />
        </mxCell>
        <mxCell id="BPXdv4qKAqIuUl87QLlF-110" style="edgeStyle=orthogonalEdgeStyle;rounded=0;orthogonalLoop=1;jettySize=auto;html=1;" edge="1" parent="1" source="BPXdv4qKAqIuUl87QLlF-114">
          <mxGeometry relative="1" as="geometry">
            <mxPoint x="2375" y="1420" as="targetPoint" />
          </mxGeometry>
        </mxCell>
        <mxCell id="BPXdv4qKAqIuUl87QLlF-111" value="Yes" style="edgeLabel;html=1;align=center;verticalAlign=middle;resizable=0;points=[];" connectable="0" vertex="1" parent="BPXdv4qKAqIuUl87QLlF-110">
          <mxGeometry x="-0.2255" relative="1" as="geometry">
            <mxPoint as="offset" />
          </mxGeometry>
        </mxCell>
        <mxCell id="BPXdv4qKAqIuUl87QLlF-112" style="edgeStyle=orthogonalEdgeStyle;rounded=0;orthogonalLoop=1;jettySize=auto;html=1;entryX=0;entryY=0.5;entryDx=0;entryDy=0;" edge="1" parent="1" source="BPXdv4qKAqIuUl87QLlF-114" target="BPXdv4qKAqIuUl87QLlF-109">
          <mxGeometry relative="1" as="geometry">
            <mxPoint x="2260" y="1180" as="targetPoint" />
            <Array as="points">
              <mxPoint x="2240" y="1330" />
              <mxPoint x="2240" y="1180" />
            </Array>
          </mxGeometry>
        </mxCell>
        <mxCell id="BPXdv4qKAqIuUl87QLlF-113" value="No" style="edgeLabel;html=1;align=center;verticalAlign=middle;resizable=0;points=[];" connectable="0" vertex="1" parent="BPXdv4qKAqIuUl87QLlF-112">
          <mxGeometry x="-0.7265" relative="1" as="geometry">
            <mxPoint as="offset" />
          </mxGeometry>
        </mxCell>
        <mxCell id="BPXdv4qKAqIuUl87QLlF-114" value="&lt;div&gt;board[x-i][y-i] == &#39;B&#39;&amp;nbsp;&lt;/div&gt;&lt;div&gt;or ... == &#39;Q&#39;?&lt;/div&gt;" style="rhombus;whiteSpace=wrap;html=1;" vertex="1" parent="1">
          <mxGeometry x="2287.5" y="1290" width="175" height="80" as="geometry" />
        </mxCell>
        <mxCell id="BPXdv4qKAqIuUl87QLlF-115" style="edgeStyle=orthogonalEdgeStyle;rounded=0;orthogonalLoop=1;jettySize=auto;html=1;entryX=0;entryY=0.25;entryDx=0;entryDy=0;" edge="1" parent="1" source="BPXdv4qKAqIuUl87QLlF-116" target="BPXdv4qKAqIuUl87QLlF-109">
          <mxGeometry relative="1" as="geometry">
            <mxPoint x="2190" y="1080" as="targetPoint" />
            <Array as="points">
              <mxPoint x="2140" y="1450" />
              <mxPoint x="2140" y="1120" />
              <mxPoint x="2324" y="1120" />
            </Array>
          </mxGeometry>
        </mxCell>
        <mxCell id="BPXdv4qKAqIuUl87QLlF-118" style="edgeStyle=orthogonalEdgeStyle;rounded=0;orthogonalLoop=1;jettySize=auto;html=1;" edge="1" parent="1" source="BPXdv4qKAqIuUl87QLlF-116" target="BPXdv4qKAqIuUl87QLlF-119">
          <mxGeometry relative="1" as="geometry">
            <mxPoint x="2375" y="1530" as="targetPoint" />
          </mxGeometry>
        </mxCell>
        <mxCell id="BPXdv4qKAqIuUl87QLlF-116" value="attack.insert(board[x-i][y-i])" style="rounded=0;whiteSpace=wrap;html=1;" vertex="1" parent="1">
          <mxGeometry x="2307.5" y="1420" width="135" height="60" as="geometry" />
        </mxCell>
        <mxCell id="BPXdv4qKAqIuUl87QLlF-119" value="2" style="ellipse;whiteSpace=wrap;html=1;aspect=fixed;" vertex="1" parent="1">
          <mxGeometry x="2357.5" y="1510" width="35" height="35" as="geometry" />
        </mxCell>
        <mxCell id="BPXdv4qKAqIuUl87QLlF-122" value="" style="edgeStyle=orthogonalEdgeStyle;rounded=0;orthogonalLoop=1;jettySize=auto;html=1;" edge="1" parent="1" source="BPXdv4qKAqIuUl87QLlF-120" target="BPXdv4qKAqIuUl87QLlF-121">
          <mxGeometry relative="1" as="geometry" />
        </mxCell>
        <mxCell id="BPXdv4qKAqIuUl87QLlF-120" value="2" style="ellipse;whiteSpace=wrap;html=1;aspect=fixed;" vertex="1" parent="1">
          <mxGeometry x="2210" y="-130" width="35" height="35" as="geometry" />
        </mxCell>
        <mxCell id="BPXdv4qKAqIuUl87QLlF-123" style="edgeStyle=orthogonalEdgeStyle;rounded=0;orthogonalLoop=1;jettySize=auto;html=1;" edge="1" parent="1" source="BPXdv4qKAqIuUl87QLlF-121">
          <mxGeometry relative="1" as="geometry">
            <mxPoint x="2227.5" y="110" as="targetPoint" />
          </mxGeometry>
        </mxCell>
        <mxCell id="BPXdv4qKAqIuUl87QLlF-131" style="edgeStyle=orthogonalEdgeStyle;rounded=0;orthogonalLoop=1;jettySize=auto;html=1;entryX=0.5;entryY=0;entryDx=0;entryDy=0;" edge="1" parent="1" source="BPXdv4qKAqIuUl87QLlF-121" target="BPXdv4qKAqIuUl87QLlF-133">
          <mxGeometry relative="1" as="geometry">
            <mxPoint x="2540" y="180" as="targetPoint" />
            <Array as="points">
              <mxPoint x="2510" y="15" />
            </Array>
          </mxGeometry>
        </mxCell>
        <mxCell id="BPXdv4qKAqIuUl87QLlF-121" value="int i = x-1; i&amp;gt;=0; i--" style="shape=hexagon;perimeter=hexagonPerimeter2;whiteSpace=wrap;html=1;fixedSize=1;" vertex="1" parent="1">
          <mxGeometry x="2167.5" y="-25" width="120" height="80" as="geometry" />
        </mxCell>
        <mxCell id="BPXdv4qKAqIuUl87QLlF-125" style="edgeStyle=orthogonalEdgeStyle;rounded=0;orthogonalLoop=1;jettySize=auto;html=1;" edge="1" parent="1">
          <mxGeometry relative="1" as="geometry">
            <mxPoint x="2227.21" y="280" as="targetPoint" />
            <mxPoint x="2227.21" y="220" as="sourcePoint" />
            <Array as="points">
              <mxPoint x="2227.21" y="255" />
              <mxPoint x="2227.21" y="255" />
            </Array>
          </mxGeometry>
        </mxCell>
        <mxCell id="BPXdv4qKAqIuUl87QLlF-128" value="Yes" style="edgeLabel;html=1;align=center;verticalAlign=middle;resizable=0;points=[];" connectable="0" vertex="1" parent="BPXdv4qKAqIuUl87QLlF-125">
          <mxGeometry x="-0.2222" y="-1" relative="1" as="geometry">
            <mxPoint as="offset" />
          </mxGeometry>
        </mxCell>
        <mxCell id="BPXdv4qKAqIuUl87QLlF-129" style="edgeStyle=orthogonalEdgeStyle;rounded=0;orthogonalLoop=1;jettySize=auto;html=1;entryX=0;entryY=0.75;entryDx=0;entryDy=0;" edge="1" parent="1" source="BPXdv4qKAqIuUl87QLlF-124" target="BPXdv4qKAqIuUl87QLlF-121">
          <mxGeometry relative="1" as="geometry">
            <Array as="points">
              <mxPoint x="2090" y="165" />
              <mxPoint x="2090" y="83" />
              <mxPoint x="2130" y="83" />
              <mxPoint x="2130" y="32" />
            </Array>
          </mxGeometry>
        </mxCell>
        <mxCell id="BPXdv4qKAqIuUl87QLlF-130" value="No" style="edgeLabel;html=1;align=center;verticalAlign=middle;resizable=0;points=[];" connectable="0" vertex="1" parent="BPXdv4qKAqIuUl87QLlF-129">
          <mxGeometry x="-0.8846" relative="1" as="geometry">
            <mxPoint as="offset" />
          </mxGeometry>
        </mxCell>
        <mxCell id="BPXdv4qKAqIuUl87QLlF-124" value="board[i][y]==&#39;R&#39; or ... ==&#39;Q&#39;?" style="rhombus;whiteSpace=wrap;html=1;" vertex="1" parent="1">
          <mxGeometry x="2123.75" y="110" width="207.5" height="110" as="geometry" />
        </mxCell>
        <mxCell id="BPXdv4qKAqIuUl87QLlF-127" style="edgeStyle=orthogonalEdgeStyle;rounded=0;orthogonalLoop=1;jettySize=auto;html=1;entryX=0;entryY=0.5;entryDx=0;entryDy=0;" edge="1" parent="1" source="BPXdv4qKAqIuUl87QLlF-126" target="BPXdv4qKAqIuUl87QLlF-121">
          <mxGeometry relative="1" as="geometry">
            <Array as="points">
              <mxPoint x="2040" y="310" />
              <mxPoint x="2040" y="15" />
            </Array>
          </mxGeometry>
        </mxCell>
        <mxCell id="BPXdv4qKAqIuUl87QLlF-126" value="attack.insert(board[i][y])" style="rounded=0;whiteSpace=wrap;html=1;" vertex="1" parent="1">
          <mxGeometry x="2161.25" y="280" width="132.5" height="60" as="geometry" />
        </mxCell>
        <mxCell id="BPXdv4qKAqIuUl87QLlF-132" style="edgeStyle=orthogonalEdgeStyle;rounded=0;orthogonalLoop=1;jettySize=auto;html=1;" edge="1" parent="1" source="BPXdv4qKAqIuUl87QLlF-133">
          <mxGeometry relative="1" as="geometry">
            <mxPoint x="2510" y="330" as="targetPoint" />
          </mxGeometry>
        </mxCell>
        <mxCell id="BPXdv4qKAqIuUl87QLlF-150" style="edgeStyle=orthogonalEdgeStyle;rounded=0;orthogonalLoop=1;jettySize=auto;html=1;entryX=0.5;entryY=0;entryDx=0;entryDy=0;" edge="1" parent="1" source="BPXdv4qKAqIuUl87QLlF-133" target="BPXdv4qKAqIuUl87QLlF-142">
          <mxGeometry relative="1" as="geometry" />
        </mxCell>
        <mxCell id="BPXdv4qKAqIuUl87QLlF-133" value="int i = x+1; i&amp;lt;8; i++" style="shape=hexagon;perimeter=hexagonPerimeter2;whiteSpace=wrap;html=1;fixedSize=1;" vertex="1" parent="1">
          <mxGeometry x="2450" y="195" width="120" height="80" as="geometry" />
        </mxCell>
        <mxCell id="BPXdv4qKAqIuUl87QLlF-134" style="edgeStyle=orthogonalEdgeStyle;rounded=0;orthogonalLoop=1;jettySize=auto;html=1;" edge="1" parent="1" source="BPXdv4qKAqIuUl87QLlF-138" target="BPXdv4qKAqIuUl87QLlF-140">
          <mxGeometry relative="1" as="geometry">
            <mxPoint x="2510" y="510" as="targetPoint" />
          </mxGeometry>
        </mxCell>
        <mxCell id="BPXdv4qKAqIuUl87QLlF-135" value="Yes" style="edgeLabel;html=1;align=center;verticalAlign=middle;resizable=0;points=[];" connectable="0" vertex="1" parent="BPXdv4qKAqIuUl87QLlF-134">
          <mxGeometry x="-0.2222" y="-1" relative="1" as="geometry">
            <mxPoint as="offset" />
          </mxGeometry>
        </mxCell>
        <mxCell id="BPXdv4qKAqIuUl87QLlF-136" style="edgeStyle=orthogonalEdgeStyle;rounded=0;orthogonalLoop=1;jettySize=auto;html=1;entryX=0;entryY=0.75;entryDx=0;entryDy=0;" edge="1" parent="1" source="BPXdv4qKAqIuUl87QLlF-138" target="BPXdv4qKAqIuUl87QLlF-133">
          <mxGeometry relative="1" as="geometry">
            <Array as="points">
              <mxPoint x="2372.5" y="385" />
              <mxPoint x="2372.5" y="303" />
              <mxPoint x="2412.5" y="303" />
              <mxPoint x="2412.5" y="252" />
            </Array>
          </mxGeometry>
        </mxCell>
        <mxCell id="BPXdv4qKAqIuUl87QLlF-137" value="No" style="edgeLabel;html=1;align=center;verticalAlign=middle;resizable=0;points=[];" connectable="0" vertex="1" parent="BPXdv4qKAqIuUl87QLlF-136">
          <mxGeometry x="-0.8846" relative="1" as="geometry">
            <mxPoint as="offset" />
          </mxGeometry>
        </mxCell>
        <mxCell id="BPXdv4qKAqIuUl87QLlF-138" value="board[i][y]==&#39;R&#39; or ... ==&#39;Q&#39;?" style="rhombus;whiteSpace=wrap;html=1;" vertex="1" parent="1">
          <mxGeometry x="2406.25" y="330" width="207.5" height="110" as="geometry" />
        </mxCell>
        <mxCell id="BPXdv4qKAqIuUl87QLlF-139" style="edgeStyle=orthogonalEdgeStyle;rounded=0;orthogonalLoop=1;jettySize=auto;html=1;entryX=0;entryY=0.5;entryDx=0;entryDy=0;" edge="1" parent="1" source="BPXdv4qKAqIuUl87QLlF-140" target="BPXdv4qKAqIuUl87QLlF-133">
          <mxGeometry relative="1" as="geometry">
            <Array as="points">
              <mxPoint x="2322.5" y="530" />
              <mxPoint x="2322.5" y="235" />
            </Array>
          </mxGeometry>
        </mxCell>
        <mxCell id="BPXdv4qKAqIuUl87QLlF-140" value="attack.insert(board[i][y])" style="rounded=0;whiteSpace=wrap;html=1;" vertex="1" parent="1">
          <mxGeometry x="2443.75" y="500" width="132.5" height="60" as="geometry" />
        </mxCell>
        <mxCell id="BPXdv4qKAqIuUl87QLlF-141" style="edgeStyle=orthogonalEdgeStyle;rounded=0;orthogonalLoop=1;jettySize=auto;html=1;" edge="1" parent="1" source="BPXdv4qKAqIuUl87QLlF-142">
          <mxGeometry relative="1" as="geometry">
            <mxPoint x="2801.2" y="540" as="targetPoint" />
          </mxGeometry>
        </mxCell>
        <mxCell id="BPXdv4qKAqIuUl87QLlF-160" style="edgeStyle=orthogonalEdgeStyle;rounded=0;orthogonalLoop=1;jettySize=auto;html=1;entryX=0.5;entryY=0;entryDx=0;entryDy=0;" edge="1" parent="1" source="BPXdv4qKAqIuUl87QLlF-142" target="BPXdv4qKAqIuUl87QLlF-152">
          <mxGeometry relative="1" as="geometry" />
        </mxCell>
        <mxCell id="BPXdv4qKAqIuUl87QLlF-142" value="int i = y-1; i&amp;gt;=0; i--" style="shape=hexagon;perimeter=hexagonPerimeter2;whiteSpace=wrap;html=1;fixedSize=1;" vertex="1" parent="1">
          <mxGeometry x="2741.2" y="405" width="120" height="80" as="geometry" />
        </mxCell>
        <mxCell id="BPXdv4qKAqIuUl87QLlF-143" style="edgeStyle=orthogonalEdgeStyle;rounded=0;orthogonalLoop=1;jettySize=auto;html=1;" edge="1" parent="1" source="BPXdv4qKAqIuUl87QLlF-147" target="BPXdv4qKAqIuUl87QLlF-149">
          <mxGeometry relative="1" as="geometry">
            <mxPoint x="2801.2" y="720" as="targetPoint" />
          </mxGeometry>
        </mxCell>
        <mxCell id="BPXdv4qKAqIuUl87QLlF-144" value="Yes" style="edgeLabel;html=1;align=center;verticalAlign=middle;resizable=0;points=[];" connectable="0" vertex="1" parent="BPXdv4qKAqIuUl87QLlF-143">
          <mxGeometry x="-0.2222" y="-1" relative="1" as="geometry">
            <mxPoint as="offset" />
          </mxGeometry>
        </mxCell>
        <mxCell id="BPXdv4qKAqIuUl87QLlF-145" style="edgeStyle=orthogonalEdgeStyle;rounded=0;orthogonalLoop=1;jettySize=auto;html=1;entryX=0;entryY=0.75;entryDx=0;entryDy=0;" edge="1" parent="1" source="BPXdv4qKAqIuUl87QLlF-147" target="BPXdv4qKAqIuUl87QLlF-142">
          <mxGeometry relative="1" as="geometry">
            <Array as="points">
              <mxPoint x="2663.7" y="595" />
              <mxPoint x="2663.7" y="513" />
              <mxPoint x="2703.7" y="513" />
              <mxPoint x="2703.7" y="462" />
            </Array>
          </mxGeometry>
        </mxCell>
        <mxCell id="BPXdv4qKAqIuUl87QLlF-146" value="No" style="edgeLabel;html=1;align=center;verticalAlign=middle;resizable=0;points=[];" connectable="0" vertex="1" parent="BPXdv4qKAqIuUl87QLlF-145">
          <mxGeometry x="-0.8846" relative="1" as="geometry">
            <mxPoint as="offset" />
          </mxGeometry>
        </mxCell>
        <mxCell id="BPXdv4qKAqIuUl87QLlF-147" value="board[x][i]==&#39;R&#39; or ... ==&#39;Q&#39;?" style="rhombus;whiteSpace=wrap;html=1;" vertex="1" parent="1">
          <mxGeometry x="2697.45" y="540" width="207.5" height="110" as="geometry" />
        </mxCell>
        <mxCell id="BPXdv4qKAqIuUl87QLlF-148" style="edgeStyle=orthogonalEdgeStyle;rounded=0;orthogonalLoop=1;jettySize=auto;html=1;entryX=0;entryY=0.5;entryDx=0;entryDy=0;" edge="1" parent="1" source="BPXdv4qKAqIuUl87QLlF-149" target="BPXdv4qKAqIuUl87QLlF-142">
          <mxGeometry relative="1" as="geometry">
            <Array as="points">
              <mxPoint x="2613.7" y="740" />
              <mxPoint x="2613.7" y="445" />
            </Array>
          </mxGeometry>
        </mxCell>
        <mxCell id="BPXdv4qKAqIuUl87QLlF-149" value="attack.insert(board[x][i])" style="rounded=0;whiteSpace=wrap;html=1;" vertex="1" parent="1">
          <mxGeometry x="2734.95" y="710" width="132.5" height="60" as="geometry" />
        </mxCell>
        <mxCell id="BPXdv4qKAqIuUl87QLlF-151" style="edgeStyle=orthogonalEdgeStyle;rounded=0;orthogonalLoop=1;jettySize=auto;html=1;" edge="1" parent="1" source="BPXdv4qKAqIuUl87QLlF-152">
          <mxGeometry relative="1" as="geometry">
            <mxPoint x="3092.45" y="755" as="targetPoint" />
          </mxGeometry>
        </mxCell>
        <mxCell id="BPXdv4qKAqIuUl87QLlF-163" value="" style="edgeStyle=orthogonalEdgeStyle;rounded=0;orthogonalLoop=1;jettySize=auto;html=1;" edge="1" parent="1" source="BPXdv4qKAqIuUl87QLlF-152" target="BPXdv4qKAqIuUl87QLlF-162">
          <mxGeometry relative="1" as="geometry" />
        </mxCell>
        <mxCell id="BPXdv4qKAqIuUl87QLlF-152" value="int i = y+1; i&amp;lt;8; i++" style="shape=hexagon;perimeter=hexagonPerimeter2;whiteSpace=wrap;html=1;fixedSize=1;" vertex="1" parent="1">
          <mxGeometry x="3032.45" y="620" width="120" height="80" as="geometry" />
        </mxCell>
        <mxCell id="BPXdv4qKAqIuUl87QLlF-153" style="edgeStyle=orthogonalEdgeStyle;rounded=0;orthogonalLoop=1;jettySize=auto;html=1;" edge="1" parent="1" source="BPXdv4qKAqIuUl87QLlF-157" target="BPXdv4qKAqIuUl87QLlF-159">
          <mxGeometry relative="1" as="geometry">
            <mxPoint x="3092.45" y="935" as="targetPoint" />
          </mxGeometry>
        </mxCell>
        <mxCell id="BPXdv4qKAqIuUl87QLlF-154" value="Yes" style="edgeLabel;html=1;align=center;verticalAlign=middle;resizable=0;points=[];" connectable="0" vertex="1" parent="BPXdv4qKAqIuUl87QLlF-153">
          <mxGeometry x="-0.2222" y="-1" relative="1" as="geometry">
            <mxPoint as="offset" />
          </mxGeometry>
        </mxCell>
        <mxCell id="BPXdv4qKAqIuUl87QLlF-155" style="edgeStyle=orthogonalEdgeStyle;rounded=0;orthogonalLoop=1;jettySize=auto;html=1;entryX=0;entryY=0.75;entryDx=0;entryDy=0;" edge="1" parent="1" source="BPXdv4qKAqIuUl87QLlF-157" target="BPXdv4qKAqIuUl87QLlF-152">
          <mxGeometry relative="1" as="geometry">
            <Array as="points">
              <mxPoint x="2954.95" y="810" />
              <mxPoint x="2954.95" y="728" />
              <mxPoint x="2994.95" y="728" />
              <mxPoint x="2994.95" y="677" />
            </Array>
          </mxGeometry>
        </mxCell>
        <mxCell id="BPXdv4qKAqIuUl87QLlF-156" value="No" style="edgeLabel;html=1;align=center;verticalAlign=middle;resizable=0;points=[];" connectable="0" vertex="1" parent="BPXdv4qKAqIuUl87QLlF-155">
          <mxGeometry x="-0.8846" relative="1" as="geometry">
            <mxPoint as="offset" />
          </mxGeometry>
        </mxCell>
        <mxCell id="BPXdv4qKAqIuUl87QLlF-157" value="board[x][i]==&#39;R&#39; or ... ==&#39;Q&#39;?" style="rhombus;whiteSpace=wrap;html=1;" vertex="1" parent="1">
          <mxGeometry x="2988.7" y="755" width="207.5" height="110" as="geometry" />
        </mxCell>
        <mxCell id="BPXdv4qKAqIuUl87QLlF-158" style="edgeStyle=orthogonalEdgeStyle;rounded=0;orthogonalLoop=1;jettySize=auto;html=1;entryX=0;entryY=0.5;entryDx=0;entryDy=0;" edge="1" parent="1" source="BPXdv4qKAqIuUl87QLlF-159" target="BPXdv4qKAqIuUl87QLlF-152">
          <mxGeometry relative="1" as="geometry">
            <Array as="points">
              <mxPoint x="2904.95" y="955" />
              <mxPoint x="2904.95" y="660" />
            </Array>
          </mxGeometry>
        </mxCell>
        <mxCell id="BPXdv4qKAqIuUl87QLlF-159" value="attack.insert(board[x][i])" style="rounded=0;whiteSpace=wrap;html=1;" vertex="1" parent="1">
          <mxGeometry x="3026.2" y="925" width="132.5" height="60" as="geometry" />
        </mxCell>
        <mxCell id="BPXdv4qKAqIuUl87QLlF-164" style="edgeStyle=orthogonalEdgeStyle;rounded=0;orthogonalLoop=1;jettySize=auto;html=1;" edge="1" parent="1" source="BPXdv4qKAqIuUl87QLlF-162">
          <mxGeometry relative="1" as="geometry">
            <mxPoint x="3310" y="790" as="targetPoint" />
          </mxGeometry>
        </mxCell>
        <mxCell id="BPXdv4qKAqIuUl87QLlF-182" style="edgeStyle=orthogonalEdgeStyle;rounded=0;orthogonalLoop=1;jettySize=auto;html=1;" edge="1" parent="1" source="BPXdv4qKAqIuUl87QLlF-162" target="BPXdv4qKAqIuUl87QLlF-183">
          <mxGeometry relative="1" as="geometry">
            <mxPoint x="3600" y="660" as="targetPoint" />
          </mxGeometry>
        </mxCell>
        <mxCell id="BPXdv4qKAqIuUl87QLlF-162" value="int i=-1; i&amp;lt;=1; i++" style="shape=hexagon;perimeter=hexagonPerimeter2;whiteSpace=wrap;html=1;fixedSize=1;" vertex="1" parent="1">
          <mxGeometry x="3250" y="620" width="120" height="80" as="geometry" />
        </mxCell>
        <mxCell id="BPXdv4qKAqIuUl87QLlF-169" value="" style="edgeStyle=orthogonalEdgeStyle;rounded=0;orthogonalLoop=1;jettySize=auto;html=1;" edge="1" parent="1" source="BPXdv4qKAqIuUl87QLlF-165" target="BPXdv4qKAqIuUl87QLlF-166">
          <mxGeometry relative="1" as="geometry" />
        </mxCell>
        <mxCell id="BPXdv4qKAqIuUl87QLlF-181" style="edgeStyle=orthogonalEdgeStyle;rounded=0;orthogonalLoop=1;jettySize=auto;html=1;exitX=1;exitY=0.25;exitDx=0;exitDy=0;entryX=1;entryY=0.75;entryDx=0;entryDy=0;" edge="1" parent="1" source="BPXdv4qKAqIuUl87QLlF-165" target="BPXdv4qKAqIuUl87QLlF-162">
          <mxGeometry relative="1" as="geometry">
            <Array as="points">
              <mxPoint x="3400" y="813" />
              <mxPoint x="3400" y="677" />
            </Array>
          </mxGeometry>
        </mxCell>
        <mxCell id="BPXdv4qKAqIuUl87QLlF-165" value="int j=-1; j&amp;lt;=1; j++" style="shape=hexagon;perimeter=hexagonPerimeter2;whiteSpace=wrap;html=1;fixedSize=1;" vertex="1" parent="1">
          <mxGeometry x="3250" y="790" width="120" height="80" as="geometry" />
        </mxCell>
        <mxCell id="BPXdv4qKAqIuUl87QLlF-167" style="edgeStyle=orthogonalEdgeStyle;rounded=0;orthogonalLoop=1;jettySize=auto;html=1;entryX=0;entryY=0.5;entryDx=0;entryDy=0;" edge="1" parent="1" source="BPXdv4qKAqIuUl87QLlF-166" target="BPXdv4qKAqIuUl87QLlF-165">
          <mxGeometry relative="1" as="geometry">
            <Array as="points">
              <mxPoint x="3210" y="940" />
              <mxPoint x="3210" y="830" />
            </Array>
          </mxGeometry>
        </mxCell>
        <mxCell id="BPXdv4qKAqIuUl87QLlF-168" value="Yes" style="edgeLabel;html=1;align=center;verticalAlign=middle;resizable=0;points=[];" connectable="0" vertex="1" parent="BPXdv4qKAqIuUl87QLlF-167">
          <mxGeometry x="-0.8064" relative="1" as="geometry">
            <mxPoint as="offset" />
          </mxGeometry>
        </mxCell>
        <mxCell id="BPXdv4qKAqIuUl87QLlF-171" value="" style="edgeStyle=orthogonalEdgeStyle;rounded=0;orthogonalLoop=1;jettySize=auto;html=1;" edge="1" parent="1" source="BPXdv4qKAqIuUl87QLlF-166" target="BPXdv4qKAqIuUl87QLlF-170">
          <mxGeometry relative="1" as="geometry" />
        </mxCell>
        <mxCell id="BPXdv4qKAqIuUl87QLlF-179" value="No" style="edgeLabel;html=1;align=center;verticalAlign=middle;resizable=0;points=[];" connectable="0" vertex="1" parent="BPXdv4qKAqIuUl87QLlF-171">
          <mxGeometry x="-0.2152" relative="1" as="geometry">
            <mxPoint as="offset" />
          </mxGeometry>
        </mxCell>
        <mxCell id="BPXdv4qKAqIuUl87QLlF-166" value="i==0 &amp;amp; j==0?" style="rhombus;whiteSpace=wrap;html=1;" vertex="1" parent="1">
          <mxGeometry x="3245" y="900" width="130" height="80" as="geometry" />
        </mxCell>
        <mxCell id="BPXdv4qKAqIuUl87QLlF-173" value="" style="edgeStyle=orthogonalEdgeStyle;rounded=0;orthogonalLoop=1;jettySize=auto;html=1;" edge="1" parent="1" source="BPXdv4qKAqIuUl87QLlF-170" target="BPXdv4qKAqIuUl87QLlF-172">
          <mxGeometry relative="1" as="geometry" />
        </mxCell>
        <mxCell id="BPXdv4qKAqIuUl87QLlF-170" value="&lt;div&gt;int onen = x+i&lt;/div&gt;&lt;div&gt;int twon = y+j&lt;br&gt;&lt;/div&gt;" style="rounded=0;whiteSpace=wrap;html=1;" vertex="1" parent="1">
          <mxGeometry x="3250" y="1030" width="120" height="60" as="geometry" />
        </mxCell>
        <mxCell id="BPXdv4qKAqIuUl87QLlF-174" style="edgeStyle=orthogonalEdgeStyle;rounded=0;orthogonalLoop=1;jettySize=auto;html=1;" edge="1" parent="1" source="BPXdv4qKAqIuUl87QLlF-172">
          <mxGeometry relative="1" as="geometry">
            <mxPoint x="3310" y="1360" as="targetPoint" />
          </mxGeometry>
        </mxCell>
        <mxCell id="BPXdv4qKAqIuUl87QLlF-180" value="Yes" style="edgeLabel;html=1;align=center;verticalAlign=middle;resizable=0;points=[];" connectable="0" vertex="1" parent="BPXdv4qKAqIuUl87QLlF-174">
          <mxGeometry x="-0.1623" relative="1" as="geometry">
            <mxPoint as="offset" />
          </mxGeometry>
        </mxCell>
        <mxCell id="BPXdv4qKAqIuUl87QLlF-177" style="edgeStyle=orthogonalEdgeStyle;rounded=0;orthogonalLoop=1;jettySize=auto;html=1;entryX=1;entryY=0.75;entryDx=0;entryDy=0;" edge="1" parent="1" source="BPXdv4qKAqIuUl87QLlF-172" target="BPXdv4qKAqIuUl87QLlF-165">
          <mxGeometry relative="1" as="geometry">
            <mxPoint x="3450" y="860" as="targetPoint" />
            <Array as="points">
              <mxPoint x="3470" y="1230" />
              <mxPoint x="3470" y="900" />
              <mxPoint x="3361" y="900" />
            </Array>
          </mxGeometry>
        </mxCell>
        <mxCell id="BPXdv4qKAqIuUl87QLlF-178" value="No" style="edgeLabel;html=1;align=center;verticalAlign=middle;resizable=0;points=[];" connectable="0" vertex="1" parent="BPXdv4qKAqIuUl87QLlF-177">
          <mxGeometry x="-0.9224" relative="1" as="geometry">
            <mxPoint as="offset" />
          </mxGeometry>
        </mxCell>
        <mxCell id="BPXdv4qKAqIuUl87QLlF-172" value="&lt;div&gt;onen&amp;gt;=0 &amp;amp; onen&amp;lt;8&lt;/div&gt;&lt;div&gt;&amp;amp; twon&amp;gt;=0 &amp;amp; twon&amp;lt;8&lt;/div&gt;&lt;div&gt;&amp;amp;board[onen][twon]==&#39;K&#39;?&lt;br&gt;&lt;/div&gt;" style="rhombus;whiteSpace=wrap;html=1;" vertex="1" parent="1">
          <mxGeometry x="3195" y="1160" width="230" height="140" as="geometry" />
        </mxCell>
        <mxCell id="BPXdv4qKAqIuUl87QLlF-176" style="edgeStyle=orthogonalEdgeStyle;rounded=0;orthogonalLoop=1;jettySize=auto;html=1;entryX=1;entryY=0.5;entryDx=0;entryDy=0;" edge="1" parent="1" source="BPXdv4qKAqIuUl87QLlF-175" target="BPXdv4qKAqIuUl87QLlF-165">
          <mxGeometry relative="1" as="geometry">
            <mxPoint x="3460" y="830" as="targetPoint" />
            <Array as="points">
              <mxPoint x="3490" y="1390" />
              <mxPoint x="3490" y="830" />
            </Array>
          </mxGeometry>
        </mxCell>
        <mxCell id="BPXdv4qKAqIuUl87QLlF-175" value="attack.insert(&#39;K&#39;)" style="rounded=0;whiteSpace=wrap;html=1;" vertex="1" parent="1">
          <mxGeometry x="3242.5" y="1360" width="132.5" height="60" as="geometry" />
        </mxCell>
        <mxCell id="BPXdv4qKAqIuUl87QLlF-184" style="edgeStyle=orthogonalEdgeStyle;rounded=0;orthogonalLoop=1;jettySize=auto;html=1;" edge="1" parent="1" source="BPXdv4qKAqIuUl87QLlF-183">
          <mxGeometry relative="1" as="geometry">
            <mxPoint x="3830" y="660" as="targetPoint" />
          </mxGeometry>
        </mxCell>
        <mxCell id="BPXdv4qKAqIuUl87QLlF-185" value="Yes" style="edgeLabel;html=1;align=center;verticalAlign=middle;resizable=0;points=[];" connectable="0" vertex="1" parent="BPXdv4qKAqIuUl87QLlF-184">
          <mxGeometry x="-0.1101" y="-1" relative="1" as="geometry">
            <mxPoint as="offset" />
          </mxGeometry>
        </mxCell>
        <mxCell id="BPXdv4qKAqIuUl87QLlF-187" style="edgeStyle=orthogonalEdgeStyle;rounded=0;orthogonalLoop=1;jettySize=auto;html=1;" edge="1" parent="1" source="BPXdv4qKAqIuUl87QLlF-183">
          <mxGeometry relative="1" as="geometry">
            <mxPoint x="3685" y="780" as="targetPoint" />
          </mxGeometry>
        </mxCell>
        <mxCell id="BPXdv4qKAqIuUl87QLlF-188" value="No" style="edgeLabel;html=1;align=center;verticalAlign=middle;resizable=0;points=[];" connectable="0" vertex="1" parent="BPXdv4qKAqIuUl87QLlF-187">
          <mxGeometry x="-0.1807" relative="1" as="geometry">
            <mxPoint as="offset" />
          </mxGeometry>
        </mxCell>
        <mxCell id="BPXdv4qKAqIuUl87QLlF-183" value="attack.empty()?" style="rhombus;whiteSpace=wrap;html=1;" vertex="1" parent="1">
          <mxGeometry x="3620" y="620" width="130" height="80" as="geometry" />
        </mxCell>
        <mxCell id="BPXdv4qKAqIuUl87QLlF-186" value="return &quot;O&quot;" style="ellipse;whiteSpace=wrap;html=1;" vertex="1" parent="1">
          <mxGeometry x="3830" y="620" width="120" height="80" as="geometry" />
        </mxCell>
        <mxCell id="BPXdv4qKAqIuUl87QLlF-189" value="return std::string (attack.begin(), attack.end())" style="ellipse;whiteSpace=wrap;html=1;" vertex="1" parent="1">
          <mxGeometry x="3625" y="780" width="120" height="80" as="geometry" />
        </mxCell>
      </root>
    </mxGraphModel>
  </diagram>
</mxfile>
